<?xml version="1.0" encoding="UTF-8"?>
<svg width="77px" height="77px" viewBox="0 0 77 77" version="1.1" xmlns="http://www.w3.org/2000/svg" xmlns:xlink="http://www.w3.org/1999/xlink">
    <!-- Generator: Sketch 47.1 (45422) - http://www.bohemiancoding.com/sketch -->
    <title>tickets-icon</title>
    <desc>Created with Sketch.</desc>
    <defs>
        <polygon id="path-1" points="0.00902777778 0.0638726773 0.00902777778 69.9557895 22.3226852 69.9557895 44.6363426 69.9557895 44.6363426 0.0638726773"></polygon>
    </defs>
    <g id="Page-1" stroke="none" stroke-width="1" fill="none" fill-rule="evenodd">
        <g id="Landing-Page" transform="translate(-742.000000, -300.000000)">
            <g id="Header" transform="translate(-10.000000, -7.000000)">
                <g id="Group-26" transform="translate(752.000000, 307.000000)">
                    <g id="tickets-icon" transform="translate(38.500000, 38.500000) scale(-1, 1) translate(-38.500000, -38.500000) ">
                        <g id="tickets">
                            <path d="M62.499222,4.62595312 L55.8338901,0 C54.4996156,1.46446881 52.2586082,1.75212422 50.5868007,0.591813148 L17.1875,48.9542568 C18.8593075,50.1145678 19.3794254,52.3186138 18.4819049,54.0860292 L25.1470857,58.7119823 C26.4813603,57.2475135 28.7223677,56.9598581 30.3940241,58.1201692 C32.0658316,59.2804802 32.5861005,61.4845262 31.688429,63.2519416 L38.3536099,67.8778947 C39.6878844,66.4134259 41.9288918,66.1257705 43.6006993,67.2860816 L77,18.923638 C75.3281925,17.7633269 74.8079236,15.5592809 75.7055951,13.7918655 L69.0404143,9.16591241 C67.7061397,10.6303812 65.4651323,10.9180366 63.7933249,9.75772556 C62.1218194,8.59741449 61.6015505,6.39336849 62.499222,4.62595312" id="Fill-1" fill="#EDC878"></path>
                            <polyline id="Fill-2" fill="#E05A5A" points="24.0625 48.4656676 46.6337991 15.2378947 65.3125 28.4162853 42.7412009 61.6442105 24.0625 48.4656676"></polyline>
                            <polyline id="Fill-3" fill="#F4F4F1" points="38.5 33.5899455 44.0145628 35.262502 47.2917657 30.4757895 47.4227883 36.2960874 52.9375 37.9687945 47.5037841 39.8933863 47.6348067 45.7136842 44.1455854 41.0827999 38.7120184 43.0075423 41.9892213 38.2208297 38.5 33.5899455"></polyline>
                            <path d="M37.1248504,67.1852632 L34.1231443,65.0375564 L37.125,67.1851085 L37.1248504,67.1852632 M25.4375,58.8238958 L25.4375,58.8238958 C26.2081274,57.9518247 27.2843123,57.4884211 28.3760595,57.4884211 L28.3762091,57.4884211 C27.284462,57.4884211 26.2081274,57.9518247 25.4375,58.8238958" id="Fill-4" fill="#E4E4DF"></path>
                            <path d="M36.8944401,67.185111 L31.6529954,63.5199417 C32.5484641,61.7436553 32.0294719,59.5285467 30.3619176,58.3624118 C29.6665132,57.8761165 28.8724325,57.6430113 28.0863363,57.6430113 L28.0861857,57.6430113 C26.987037,57.6430113 25.9035561,58.0990272 25.1275535,58.9571954 L18.4787285,54.3080237 C18.7706899,53.728608 18.9123017,53.1026321 18.912603,52.4815253 C18.9133562,51.1983813 18.3112048,49.936235 17.1875,49.1504938 L45.1812918,8.31157895 L45.8950756,8.48077806 L45.5604801,11.9945507 L49.5,12.928189 L48.664641,16.5238223 L46.2679365,14.848112 L23.5232725,48.0309191 L38.8541064,58.7504134 L36.8942894,67.1852632" id="Fill-5" fill="#CFB16A"></path>
                            <polyline id="Fill-6" fill="#C85151" points="39.5739106 58.8736842 24.0625 48.2192633 47.0750655 15.2378947 49.5 16.9034325 45.1974904 35.0956483 44.7022605 35.8053885 39.0567314 34.1253322 42.6288189 38.7769813 39.2737851 43.5851574 43.5403223 42.1021588 39.5739106 58.8736842"></polyline>
                            <g id="Group-10" transform="translate(0.000000, 6.233684)">
                                <mask id="mask-2" fill="white">
                                    <use xlink:href="#path-1"></use>
                                </mask>
                                <g id="Clip-8"></g>
                                <polyline id="Fill-7" fill="#D6D5D0" mask="url(#mask-2)" points="38.7889005 37.1082006 42.1007407 32.273191 38.5746412 27.5955819 44.1474884 29.2850143 44.6363426 28.5713131 43.0005093 35.6169257 38.7889005 37.1082006"></polyline>
                                <path d="M25.8669907,1.92880278 L18.0039468,0.0638726773 C17.300081,1.92484876 15.3273611,3.02056933 13.3550926,2.55262593 L0,60.0763591 C1.97211806,60.5441505 3.25707176,62.4124263 3.0683912,64.3955208 L10.9314352,66.2604509 C11.6351505,64.3996269 13.6080208,63.3039064 15.5802894,63.7716977 C17.5524074,64.239489 18.8372106,66.1077648 18.6485301,68.0908594 L26.5117245,69.9557895 C27.2154398,68.0949655 29.1883102,66.9992449 31.1604282,67.4670362 L44.5153704,9.94345508 C42.5432523,9.47581584 41.2582986,7.60754003 41.4469792,5.6242934 L33.5839352,3.75951537 C32.8802199,5.62033937 30.9073495,6.71605995 28.935081,6.24811654 C26.962963,5.78002107 25.6783102,3.91204941 25.8669907,1.92880278" id="Fill-9" fill="#FAD380" mask="url(#mask-2)"></path>
                            </g>
                            <path d="M13.906682,19.3936842 C13.814569,19.3936842 13.7207608,19.3814355 13.6270938,19.3561214 L11.253349,18.712165 C10.5978213,18.5344768 10.1910833,17.7760356 10.3450758,17.0182476 C10.4987858,16.2604597 11.1548785,15.7902718 11.8104062,15.9681234 L14.184151,16.6120798 C14.8396787,16.7899313 15.2464167,17.5482092 15.0924242,18.3061605 C14.9608948,18.9553431 14.4597835,19.3936842 13.906682,19.3936842" id="Fill-11" fill="#E15E5F"></path>
                            <path d="M24.5037204,21.8071623 C24.4039934,21.8071623 24.3025839,21.7960971 24.2010215,21.7727705 L18.8936193,20.555299 C18.1839059,20.3924611 17.7435471,19.6980448 17.9102685,19.0042266 C18.0766841,18.3104085 18.7867034,17.8799122 19.4967228,18.0428997 L24.804125,19.2603711 C25.5139913,19.4232091 25.9541972,20.1174758 25.7876287,20.8114435 C25.6449212,21.4059739 25.102694,21.8071623 24.5037204,21.8071623 Z M35.1183718,24.2421053 C35.0186448,24.2421053 34.9172353,24.2310401 34.8156729,24.2077134 L29.5082707,22.990242 C28.7985573,22.827404 28.3581985,22.1331373 28.5249199,21.4391696 C28.6913355,20.7455009 29.4012019,20.3148552 30.1113742,20.4778426 L35.4187764,21.6953141 C36.1286427,21.858152 36.5688486,22.5525683 36.4022801,23.2463865 C36.2597256,23.8409169 35.7173455,24.2421053 35.1183718,24.2421053 L35.1183718,24.2421053 Z" id="Fill-12" fill="#E15E5F"></path>
                            <path d="M42.09411,26.32 C42.0019989,26.32 41.9081925,26.3077515 41.8145274,26.2824378 L39.4408301,25.638491 C38.7853156,25.4606421 38.3785858,24.7023756 38.5325752,23.9444357 C38.686282,23.1868224 39.342503,22.7164783 39.9978762,22.8944905 L42.3715735,23.5384373 C43.0272293,23.7162862 43.4338179,24.4745527 43.2799697,25.2324926 C43.1481605,25.8818288 42.6473417,26.32 42.09411,26.32" id="Fill-13" fill="#E15E5F"></path>
                            <polyline id="Fill-14" fill="#E15E5F" points="5.5 62.6240685 14.6906038 23.5494737 37.125 28.8032999 27.9343962 67.8778947 5.5 62.6240685"></polyline>
                            <polyline id="Fill-15" fill="#FFFFFE" points="14.4375 44.4146644 20.2146263 43.9149701 21.5392632 38.0947368 23.7852238 43.6062171 29.5625 43.1065228 25.1734313 47.0125494 27.4193919 52.5241843 22.4607368 49.4266049 18.0716681 53.3326316 19.3961551 47.5122437 14.4375 44.4146644"></polyline>
                            <path d="M48.1781424,10.3894737 C47.918782,10.3894737 47.6569733,10.3132141 47.4277568,10.1539437 L45.2564737,8.64670524 C44.6568078,8.23042326 44.5073121,7.40553128 44.9224419,6.80420098 C45.3375716,6.20287068 46.1603334,6.05296006 46.7598462,6.46939549 L48.9311293,7.97663395 C49.5307952,8.39291593 49.6801379,9.21780791 49.2650081,9.81913821 C49.0085549,10.1903089 48.5967915,10.3894737 48.1781424,10.3894737" id="Fill-16" fill="#E05A5A"></path>
                            <path d="M56.5771883,16.7412401 C56.3223472,16.7412401 56.0651006,16.6661817 55.8398782,16.5098854 L51.4340592,13.4520845 C50.8448426,13.0431819 50.6979519,12.2330636 51.105848,11.6425439 C51.5137441,11.0518735 52.3221691,10.9046203 52.9112354,11.3135228 L57.3170544,14.3713238 C57.906271,14.7802263 58.0531617,15.5904953 57.6451153,16.1811658 C57.3931308,16.545606 56.9885424,16.7412401 56.5771883,16.7412401 Z M65.3886759,22.8568421 C65.1338348,22.8568421 64.8765881,22.7817837 64.6513657,22.6256381 L60.2455468,19.5676864 C59.6563302,19.1587839 59.5094395,18.3486656 59.9173355,17.7581459 C60.3252316,17.1674754 61.1335064,17.0202223 61.722723,17.4292755 L66.1285419,20.4870765 C66.7177586,20.895979 66.8644989,21.7060973 66.4566029,22.296617 C66.2046184,22.6610572 65.80003,22.8568421 65.3886759,22.8568421 L65.3886759,22.8568421 Z" id="Fill-17" fill="#E05A5A"></path>
                            <path d="M72.2406424,27.7052632 C71.981282,27.7052632 71.7194733,27.6288489 71.4902568,27.4697294 L69.3189737,25.9624666 C68.7193078,25.5461779 68.5698121,24.7212725 68.9849419,24.1199325 C69.4000716,23.5185925 70.2228334,23.3688329 70.8223462,23.7851216 L72.9936293,25.2923844 C73.5932952,25.7086731 73.7426379,26.5335785 73.3275081,27.1349185 C73.0712079,27.5059417 72.6592915,27.7052632 72.2406424,27.7052632" id="Fill-18" fill="#E05A5A"></path>
                        </g>
                    </g>
                </g>
            </g>
        </g>
    </g>
</svg>